# xmcd
# Track frame offsets:
# 150
# 23559
# 38118
# 50354
# 67613
# 84047
# 101533
# 115064
# 126324
# 141032
# 159566
# 176451
# 193185
# 211218
# 223303
# 241163
# 258796
#
# Disc length: 3720 seconds
# Revision: 0
# Processed by: cddbd v1.5.1PL0 Copyright (c) Steve Scherf et al.
# Submitted via: VisiTrax 2.9.10.228 - For more info visit www.synapsa.com
#
DISCID=dc0e8611
DTITLE=Jackson, Alan - Country Karaoke Classics  CKC003
DYEAR=1900
DGENRE=Karaoke
TTITLE0=Where Were You
TTITLE1=Pop A Top
TTITLE2=Little Bitty
TTITLE3=Livin' On Love
TTITLE4=Mercury Blues
TTITLE5=I Don't Even Know Your Name
TTITLE6=Don't Rock The Jukebox
TTITLE7=Chattahoochie
TTITLE8=Summertime Blues
TTITLE9=Who's Cheatin' Who
TTITLE10=Midnight In Montgomery
TTITLE11=That'd Be Alright
TTITLE12=Drive (For Daddy Gene)
TTITLE13=It's Alright To Be A Redneck
TTITLE14=Where I Come From
TTITLE15=It's Five O'clock Somewhere
TTITLE16=Remember When
EXTD=
EXTT0=
EXTT1=
EXTT2=
EXTT3=
EXTT4=
EXTT5=
EXTT6=
EXTT7=
EXTT8=
EXTT9=
EXTT10=
EXTT11=
EXTT12=
EXTT13=
EXTT14=
EXTT15=
EXTT16=
PLAYORDER=
